<svg width="256" height="256" viewBox="0 0 256 256" fill="none" xmlns="http://www.w3.org/2000/svg" role="img" aria-label="SheetHub round profile icon">
  <defs>
    <linearGradient id="bg" x1="40" y1="40" x2="216" y2="216" gradientUnits="userSpaceOnUse">
      <stop offset="0" stop-color="#22C55E"/>
      <stop offset="1" stop-color="#15803D"/>
    </linearGradient>
    <linearGradient id="cell" x1="0" y1="0" x2="1" y2="1">
      <stop offset="0" stop-color="#34D399"/>
      <stop offset="1" stop-color="#16A34A"/>
    </linearGradient>
  </defs>

  <circle cx="128" cy="128" r="124" fill="#F8FAFC"/>
  <circle cx="128" cy="128" r="118" stroke="#D1D5DB" stroke-width="4"/>
  <circle cx="128" cy="128" r="84" fill="url(#bg)"/>

  <g opacity="0.35">
    <rect x="70" y="70" width="34" height="34" rx="6" fill="url(#cell)"/>
    <rect x="110" y="70" width="34" height="34" rx="6" fill="url(#cell)"/>
    <rect x="150" y="70" width="34" height="34" rx="6" fill="url(#cell)"/>
    <rect x="70" y="110" width="34" height="34" rx="6" fill="url(#cell)"/>
    <rect x="110" y="110" width="34" height="34" rx="6" fill="url(#cell)"/>
    <rect x="150" y="110" width="34" height="34" rx="6" fill="url(#cell)"/>
    <rect x="70" y="150" width="34" height="34" rx="6" fill="url(#cell)"/>
    <rect x="110" y="150" width="34" height="34" rx="6" fill="url(#cell)"/>
    <rect x="150" y="150" width="34" height="34" rx="6" fill="url(#cell)"/>
  </g>

  <rect x="111" y="111" width="34" height="34" rx="8" fill="#DCFCE7" stroke="#BBF7D0" stroke-width="3"/>

  <path d="M167 90h20v20" stroke="#DCFCE7" stroke-width="6" stroke-linecap="round" stroke-linejoin="round"/>
</svg>
